<svg width="98" height="21" viewBox="0 0 98 21" fill="none" xmlns="http://www.w3.org/2000/svg">
  <path d="M23.957 18.4484L23.957 20.6204L26.129 20.6204L26.129 18.4484L23.957 18.4484Z"
    fill="#B0DDFF" />
  <path d="M35.9336 18.4484L35.9336 20.6204L38.1056 20.6204L38.1056 18.4484L35.9336 18.4484Z"
    fill="#B0DDFF" />
  <path d="M47.9121 18.4484L47.9121 20.6204L50.0841 20.6204L50.0841 18.4484L47.9121 18.4484Z"
    fill="#B0DDFF" />
  <path d="M59.8906 18.4484L59.8906 20.6204L62.0626 20.6204L62.0626 18.4484L59.8906 18.4484Z"
    fill="#B0DDFF" />
  <path d="M71.8691 18.4484L71.8691 20.6204L74.0411 20.6204L74.0411 18.4484L71.8691 18.4484Z"
    fill="#B0DDFF" />
  <path d="M83.8477 18.4484L83.8477 20.6204L86.0196 20.6204L86.0196 18.4484L83.8477 18.4484Z"
    fill="#B0DDFF" />
  <path d="M95.8262 18.4484L95.8262 20.6204L97.9981 20.6204L97.9981 18.4484L95.8262 18.4484Z"
    fill="#B0DDFF" />
  <path d="M11.9785 9.22414L11.9785 11.3961L14.1505 11.3961L14.1505 9.22414L11.9785 9.22414Z"
    fill="#B0DDFF" />
  <path d="M23.957 9.22414L23.957 11.3961L26.129 11.3961L26.129 9.22414L23.957 9.22414Z"
    fill="#B0DDFF" />
  <path d="M35.9336 9.22414L35.9336 11.3961L38.1056 11.3961L38.1056 9.22414L35.9336 9.22414Z"
    fill="#B0DDFF" />
  <path d="M47.9121 9.22414L47.9121 11.3961L50.0841 11.3961L50.0841 9.22414L47.9121 9.22414Z"
    fill="#B0DDFF" />
  <path d="M59.8906 9.22414L59.8906 11.3961L62.0626 11.3961L62.0626 9.22414L59.8906 9.22414Z"
    fill="#B0DDFF" />
  <path d="M71.8691 9.22414L71.8691 11.3961L74.0411 11.3961L74.0411 9.22414L71.8691 9.22414Z"
    fill="#B0DDFF" />
  <path d="M83.8477 9.22414L83.8477 11.3961L86.0196 11.3961L86.0196 9.22414L83.8477 9.22414Z"
    fill="#B0DDFF" />
  <path d="M95.8262 9.22414L95.8262 11.3961L97.9981 11.3961L97.9981 9.22414L95.8262 9.22414Z"
    fill="#B0DDFF" />
  <path
    d="M-9.49402e-08 0.000263214L0 2.17224L2.17198 2.17224L2.17198 0.000263119L-9.49402e-08 0.000263214Z"
    fill="#B0DDFF" />
  <path
    d="M11.9785 1.90735e-05L11.9785 2.172L14.1505 2.172L14.1505 1.89785e-05L11.9785 1.90735e-05Z"
    fill="#B0DDFF" />
  <path d="M23.957 1.90735e-05L23.957 2.172L26.129 2.172L26.129 1.89785e-05L23.957 1.90735e-05Z"
    fill="#B0DDFF" />
  <path
    d="M35.9336 1.90735e-05L35.9336 2.172L38.1056 2.172L38.1056 1.89785e-05L35.9336 1.90735e-05Z"
    fill="#B0DDFF" />
  <path
    d="M47.9121 1.90735e-05L47.9121 2.172L50.0841 2.172L50.0841 1.89785e-05L47.9121 1.90735e-05Z"
    fill="#B0DDFF" />
  <path
    d="M59.8906 1.90735e-05L59.8906 2.172L62.0626 2.172L62.0626 1.89785e-05L59.8906 1.90735e-05Z"
    fill="#B0DDFF" />
  <path
    d="M71.8691 1.90735e-05L71.8691 2.172L74.0411 2.172L74.0411 1.89785e-05L71.8691 1.90735e-05Z"
    fill="#B0DDFF" />
  <path
    d="M83.8477 1.90735e-05L83.8477 2.172L86.0196 2.172L86.0196 1.89785e-05L83.8477 1.90735e-05Z"
    fill="#B0DDFF" />
  <path
    d="M95.8262 1.90735e-05L95.8262 2.172L97.9981 2.172L97.9981 1.89785e-05L95.8262 1.90735e-05Z"
    fill="#B0DDFF" />
</svg>