<svg width="58" height="58" viewBox="0 0 58 58" fill="none" xmlns="http://www.w3.org/2000/svg">
<rect x="2" y="2" width="54" height="54" rx="27" stroke="white" stroke-width="4"/>
<g clip-path="url(#clip0_3369_7252)">
<path d="M29 54C42.8071 54 54 42.8071 54 29C54 15.1929 42.8071 4 29 4C15.1929 4 4 15.1929 4 29C4 42.8071 15.1929 54 29 54Z" fill="#F0F0F0"/>
<path d="M27.9131 29H54C54 26.7435 53.6992 24.5576 53.1388 22.4782H27.9131V29Z" fill="#D80027"/>
<path d="M27.9131 15.9565H50.3307C48.8003 13.4593 46.8436 11.2519 44.5621 9.43475H27.9131V15.9565Z" fill="#D80027"/>
<path d="M29.0001 54C34.8838 54 40.2917 51.9664 44.5622 48.5652H13.438C17.7085 51.9664 23.1164 54 29.0001 54Z" fill="#D80027"/>
<path d="M7.66943 42.0434H50.3308C51.5594 40.0387 52.5122 37.8473 53.1389 35.5217H4.86133C5.48799 37.8473 6.44082 40.0387 7.66943 42.0434Z" fill="#D80027"/>
<path d="M15.5805 7.9041H17.8587L15.7396 9.44365L16.549 11.9348L14.43 10.3952L12.3109 11.9348L13.0102 9.78271C11.1443 11.3369 9.50898 13.1578 8.16133 15.1867H8.89131L7.54238 16.1667C7.33223 16.5173 7.13066 16.8734 6.9375 17.2349L7.58164 19.2174L6.37988 18.3442C6.08115 18.9771 5.80791 19.6243 5.5623 20.285L6.27197 22.4693H8.89131L6.77217 24.0089L7.58164 26.5L5.4626 24.9604L4.19326 25.8827C4.06621 26.904 4 27.9442 4 29H29C29 15.193 29 13.5652 29 4C24.0613 4 19.4575 5.43262 15.5805 7.9041ZM16.549 26.5L14.43 24.9604L12.3109 26.5L13.1204 24.0089L11.0013 22.4693H13.6206L14.43 19.9782L15.2394 22.4693H17.8587L15.7396 24.0089L16.549 26.5ZM15.7396 16.7263L16.549 19.2174L14.43 17.6778L12.3109 19.2174L13.1204 16.7263L11.0013 15.1867H13.6206L14.43 12.6956L15.2394 15.1867H17.8587L15.7396 16.7263ZM25.5164 26.5L23.3974 24.9604L21.2783 26.5L22.0878 24.0089L19.9687 22.4693H22.588L23.3974 19.9782L24.2067 22.4693H26.8261L24.7069 24.0089L25.5164 26.5ZM24.7069 16.7263L25.5164 19.2174L23.3974 17.6778L21.2783 19.2174L22.0878 16.7263L19.9687 15.1867H22.588L23.3974 12.6956L24.2067 15.1867H26.8261L24.7069 16.7263ZM24.7069 9.44365L25.5164 11.9348L23.3974 10.3952L21.2783 11.9348L22.0878 9.44365L19.9687 7.9041H22.588L23.3974 5.41299L24.2067 7.9041H26.8261L24.7069 9.44365Z" fill="#0052B4"/>
</g>
<defs>
<clipPath id="clip0_3369_7252">
<rect width="50" height="50" fill="white" transform="translate(4 4)"/>
</clipPath>
</defs>
</svg>
